<svg xmlns="http://www.w3.org/2000/svg" version="1.1" xmlns:xlink="http://www.w3.org/1999/xlink" xmlns:svgjs="http://svgjs.com/svgjs" width="1440" height="560" preserveAspectRatio="none" viewBox="0 0 1440 560"><g clip-path="url(&quot;#SvgjsClipPath1011&quot;)" fill="none"><rect width="1440" height="560" x="0" y="0" fill="rgba(53, 53, 53, 1)"></rect><circle r="93.335" cx="-7.64" cy="-40.1" stroke="#336b87" stroke-opacity="0.31" stroke-width="2"></circle><circle r="93.335" cx="379.68" cy="412.94" stroke="#336b87" stroke-opacity="0.31" stroke-width="2"></circle><circle r="93.335" cx="742.01" cy="700.14" stroke="#336b87" stroke-opacity="0.31" stroke-width="2"></circle><circle r="127.305" cx="874.05" cy="340.91" stroke="#336b87" stroke-opacity="0.31" stroke-width="2"></circle><circle r="104.88" cx="828.3" cy="171.8" stroke="#336b87" stroke-opacity="0.31" stroke-width="2"></circle><circle r="156.435" cx="668.03" cy="84.9" stroke="#336b87" stroke-opacity="0.31" stroke-width="2"></circle><circle r="166.095" cx="612.73" cy="481.52" stroke="#336b87" stroke-opacity="0.31" stroke-width="2"></circle><circle r="83.675" cx="802.98" cy="278.3" stroke="#336b87" stroke-opacity="0.31" stroke-width="2"></circle><circle r="128.98" cx="383.42" cy="8.85" stroke="#336b87" stroke-opacity="0.31" stroke-width="2"></circle><circle r="143.62" cx="1240.8" cy="251.72" stroke="#336b87" stroke-opacity="0.31" stroke-width="2"></circle><circle r="48.795" cx="233.77" cy="173.16" stroke="#336b87" stroke-opacity="0.31" stroke-width="2"></circle><circle r="104.94" cx="1150.96" cy="308.03" stroke="#336b87" stroke-opacity="0.31" stroke-width="2"></circle><circle r="85.13" cx="1129.08" cy="512" stroke="#336b87" stroke-opacity="0.31" stroke-width="2"></circle><circle r="130.97" cx="1152.26" cy="407.52" stroke="#336b87" stroke-opacity="0.31" stroke-width="2"></circle><circle r="155.34" cx="101.66" cy="532.92" stroke="#336b87" stroke-opacity="0.31" stroke-width="2"></circle><circle r="125.095" cx="1039.86" cy="5.59" stroke="#336b87" stroke-opacity="0.31" stroke-width="2"></circle><circle r="181.445" cx="884.38" cy="154.24" stroke="#336b87" stroke-opacity="0.31" stroke-width="2"></circle><circle r="158.22" cx="415.96" cy="237.32" stroke="#336b87" stroke-opacity="0.31" stroke-width="2"></circle><circle r="123.46" cx="275.28" cy="466.93" stroke="#336b87" stroke-opacity="0.31" stroke-width="2"></circle><circle r="179.29" cx="53.23" cy="509.82" stroke="#336b87" stroke-opacity="0.31" stroke-width="2"></circle><circle r="49.88" cx="360.38" cy="3.84" stroke="#336b87" stroke-opacity="0.31" stroke-width="2"></circle><circle r="170.255" cx="882.33" cy="491.46" stroke="#336b87" stroke-opacity="0.31" stroke-width="2"></circle><circle r="121.13" cx="744.95" cy="496.51" stroke="#336b87" stroke-opacity="0.31" stroke-width="2"></circle><circle r="172.625" cx="58.09" cy="142.35" stroke="#336b87" stroke-opacity="0.31" stroke-width="2"></circle><circle r="143.055" cx="650.39" cy="510.12" stroke="#336b87" stroke-opacity="0.31" stroke-width="2"></circle><circle r="164.96" cx="149.21" cy="119.06" stroke="#336b87" stroke-opacity="0.31" stroke-width="2"></circle><circle r="86.765" cx="704.85" cy="421.17" stroke="#336b87" stroke-opacity="0.31" stroke-width="2"></circle><circle r="100.675" cx="204.86" cy="110.89" stroke="#336b87" stroke-opacity="0.31" stroke-width="2"></circle><circle r="185.385" cx="94.9" cy="174.8" stroke="#336b87" stroke-opacity="0.31" stroke-width="2"></circle><circle r="131.87" cx="705.78" cy="411.94" stroke="#336b87" stroke-opacity="0.31" stroke-width="2"></circle><circle r="147.575" cx="1345.1" cy="528.02" stroke="#336b87" stroke-opacity="0.31" stroke-width="2"></circle><circle r="103.2" cx="785.61" cy="448.85" stroke="#336b87" stroke-opacity="0.31" stroke-width="2"></circle><circle r="126.295" cx="404.78" cy="365.5" stroke="#336b87" stroke-opacity="0.31" stroke-width="2"></circle><circle r="96.215" cx="681.31" cy="240.35" stroke="#336b87" stroke-opacity="0.31" stroke-width="2"></circle><circle r="77.905" cx="1038.98" cy="225.57" stroke="#336b87" stroke-opacity="0.31" stroke-width="2"></circle><circle r="135.85" cx="1219.15" cy="483.97" stroke="#336b87" stroke-opacity="0.31" stroke-width="2"></circle><circle r="140.255" cx="830.48" cy="344.7" stroke="#336b87" stroke-opacity="0.31" stroke-width="2"></circle><circle r="175.485" cx="1141.13" cy="438.32" stroke="#336b87" stroke-opacity="0.31" stroke-width="2"></circle><circle r="159.875" cx="87.28" cy="381.84" stroke="#336b87" stroke-opacity="0.31" stroke-width="2"></circle><circle r="186.25" cx="1387.86" cy="228.39" stroke="#336b87" stroke-opacity="0.31" stroke-width="2"></circle></g><defs><clipPath id="SvgjsClipPath1011"><rect width="1440" height="560" x="0" y="0"></rect></clipPath></defs></svg>